<?xml version="1.0" encoding="utf-8"?>
<!-- Generator: Adobe Illustrator 27.5.0, SVG Export Plug-In . SVG Version: 6.00 Build 0)  -->
<svg version="1.1" id="Layer_1" xmlns="http://www.w3.org/2000/svg" xmlns:xlink="http://www.w3.org/1999/xlink" x="0px" y="0px"
	 viewBox="0 0 180.115 251.449" style="enable-background:new 0 0 180.115 251.449;" xml:space="preserve">
<g>
	<g>
		<path style="fill:#FFFFFF;" d="M66.168,191.772l14.461,6.558c3.429,1.767,6.842,2.775,10.162,3.005
			c1.577,0.521,3.324,0.785,5.206,0.785c1.294,0,3.427,0,5.285-0.602c15.011-2.349,20.402-6.893,25.526-14.91
			c0.247-0.379,0.451-0.783,0.603-1.186l0.171-0.452c7.654-20.199,46.004-121.467,49.302-131.583
			c1.758-5.387-0.931-11.758-7.015-16.625C154.481,24.44,113.131,8.065,103.57,8.065c-0.336,0-0.646,0.016-0.994,0.044
			c-0.209,0.017-0.514,0.019-0.887,0.019c-0.467-0.004-1.025-0.005-1.629-0.011l-0.782-0.008c-0.853-0.011-1.774-0.021-2.726-0.021
			c-6.718,0-11.084,0.422-13.862,2.508c-2.433,1.135-4.362,2.882-5.743,5.203c-5.976,10.054-66.14,123.119-66.743,124.257
			c-0.025,0.046-0.049,0.092-0.072,0.14c-0.491,0.999-4.696,10.03-1.161,19.149c2.181,5.633,6.841,9.988,13.481,12.602l16.821,7.631
			l-21.422,47.236c-3.358,7.413-0.06,16.18,7.351,19.543c1.928,0.875,3.978,1.319,6.095,1.319c5.787,0,11.068-3.404,13.452-8.673
			L66.168,191.772z"/>
		<path style="fill:#F1F1F1;" d="M65.726,191.382l14.461,6.557c3.429,1.767,6.842,2.776,10.162,3.006
			c1.577,0.521,3.324,0.784,5.206,0.784c1.294,0,3.427,0,5.285-0.602c15.011-2.348,20.376-6.909,25.526-14.909
			c0.245-0.381,0.451-0.784,0.601-1.186l0.172-0.454c7.654-20.197,46.004-121.466,49.301-131.583
			c1.759-5.387-0.93-11.756-7.015-16.624c-15.388-12.322-56.737-28.695-66.299-28.695c-0.336,0-0.645,0.014-0.993,0.043
			c-0.209,0.019-0.514,0.022-0.887,0.02c-0.468-0.003-1.025-0.007-1.629-0.012l-0.782-0.008c-0.853-0.01-1.775-0.02-2.726-0.02
			c-6.719,0-11.085,0.423-13.862,2.509c-2.434,1.135-4.362,2.88-5.743,5.203c-5.977,10.053-66.13,123.123-66.743,124.257
			c-0.025,0.044-0.05,0.092-0.073,0.138c-0.506,0.992-4.694,10.031-1.16,19.15c2.181,5.633,6.84,9.988,13.481,12.604l16.821,7.63
			l-21.422,47.235c-3.358,7.414-0.061,16.181,7.351,19.544c1.928,0.875,3.978,1.318,6.095,1.318c5.787,0,11.068-3.403,13.452-8.671
			L65.726,191.382z"/>
		<path style="fill:#E2E2E2;" d="M65.283,190.992l14.461,6.557c3.429,1.767,6.842,2.776,10.162,3.005
			c1.577,0.523,3.324,0.784,5.206,0.784c1.294,0,3.427,0,5.285-0.601c15.011-2.348,20.364-6.917,25.526-14.909
			c0.245-0.38,0.451-0.784,0.603-1.186l0.171-0.452c7.654-20.199,46.004-121.468,49.302-131.583
			c1.758-5.388-0.931-11.758-7.015-16.627C153.597,23.66,112.246,7.285,102.686,7.285c-0.336,0-0.646,0.016-0.994,0.044
			c-0.209,0.017-0.514,0.02-0.887,0.018c-0.467-0.002-1.025-0.006-1.629-0.012l-0.781-0.007c-0.853-0.011-1.775-0.022-2.727-0.022
			c-6.718,0-11.084,0.423-13.862,2.509c-2.433,1.134-4.362,2.882-5.743,5.203C70.086,25.073,9.928,138.142,9.319,139.276
			c-0.025,0.045-0.049,0.092-0.072,0.14c-0.495,0.997-4.695,10.03-1.161,19.149c2.181,5.633,6.841,9.988,13.481,12.602l16.821,7.631
			l-21.422,47.235c-3.358,7.414-0.061,16.182,7.351,19.544c1.928,0.876,3.979,1.32,6.095,1.32c5.787,0,11.068-3.406,13.452-8.673
			L65.283,190.992z"/>
		<path style="fill:#D4D4D4;" d="M64.84,190.601l14.461,6.558c3.429,1.767,6.843,2.775,10.162,3.005
			c1.578,0.521,3.325,0.785,5.206,0.785c1.294,0,3.428,0,5.286-0.602c15.011-2.349,20.377-6.91,25.526-14.909
			c0.245-0.381,0.45-0.784,0.603-1.186l0.171-0.454c7.654-20.198,46.003-121.467,49.301-131.582
			c1.759-5.387-0.93-11.758-7.015-16.626c-15.387-12.32-56.738-28.696-66.298-28.696c-0.337,0-0.646,0.016-0.994,0.044
			c-0.21,0.018-0.515,0.021-0.888,0.018c-0.467-0.001-1.025-0.004-1.628-0.01l-0.781-0.009c-0.854-0.011-1.776-0.021-2.728-0.021
			c-6.718,0-11.083,0.423-13.861,2.509C78.93,10.56,77,12.308,75.62,14.629C69.643,24.683,9.484,137.75,8.876,138.885
			c-0.025,0.046-0.048,0.092-0.072,0.141c-0.498,0.994-4.694,10.029-1.161,19.148c2.183,5.634,6.841,9.989,13.482,12.603
			l16.821,7.631l-21.422,47.236c-3.358,7.413-0.061,16.18,7.352,19.544c1.928,0.875,3.979,1.318,6.095,1.318
			c5.786,0,11.068-3.404,13.452-8.671L64.84,190.601z"/>
		<path style="fill:#C5C5C5;" d="M64.398,190.212l14.461,6.557c3.428,1.766,6.842,2.775,10.162,3.005
			c1.576,0.521,3.323,0.785,5.206,0.785c1.294,0,3.427,0,5.285-0.602c15.01-2.349,20.372-6.913,25.526-14.91
			c0.244-0.38,0.451-0.784,0.603-1.186l0.171-0.453c7.653-20.198,46.004-121.468,49.301-131.583
			c1.758-5.388-0.931-11.757-7.014-16.626c-15.388-12.32-56.738-28.694-66.299-28.694c-0.336,0-0.646,0.015-0.995,0.043
			c-0.208,0.018-0.514,0.022-0.886,0.02c-0.467-0.003-1.025-0.006-1.629-0.012L97.51,6.548c-0.852-0.011-1.775-0.021-2.726-0.021
			c-6.718,0-11.084,0.423-13.862,2.509c-2.433,1.135-4.362,2.881-5.744,5.203C69.201,24.292,9.043,137.36,8.434,138.495
			c-0.025,0.045-0.05,0.093-0.072,0.14c-0.486,1.001-4.695,10.03-1.161,19.15c2.181,5.632,6.841,9.987,13.482,12.603l16.821,7.63
			l-21.422,47.236c-3.358,7.412-0.061,16.181,7.35,19.543c1.929,0.875,3.98,1.318,6.097,1.318c5.785,0,11.067-3.404,13.451-8.671
			L64.398,190.212z"/>
		<path style="fill:#B7B7B7;" d="M63.956,189.821l14.46,6.557c3.43,1.767,6.843,2.776,10.163,3.005
			c1.577,0.523,3.324,0.784,5.205,0.784c1.295,0,3.428,0,5.286-0.6c15.011-2.35,20.356-6.923,25.525-14.91
			c0.246-0.38,0.452-0.783,0.604-1.186l0.171-0.452c7.654-20.199,46.003-121.468,49.302-131.583
			c1.758-5.388-0.931-11.758-7.015-16.626c-15.388-12.32-56.738-28.695-66.299-28.695c-0.336,0-0.646,0.015-0.994,0.044
			c-0.209,0.018-0.514,0.021-0.887,0.019c-0.467-0.002-1.025-0.006-1.629-0.011l-0.782-0.008c-0.853-0.012-1.774-0.021-2.726-0.021
			c-6.718,0-11.084,0.423-13.863,2.509c-2.432,1.135-4.361,2.882-5.742,5.202C68.759,23.902,8.604,136.973,7.992,138.105
			c-0.026,0.047-0.049,0.093-0.072,0.141c-0.495,0.997-4.695,10.029-1.162,19.149c2.183,5.633,6.842,9.988,13.482,12.603
			l16.821,7.63L15.64,224.862c-3.359,7.415-0.061,16.182,7.351,19.544c1.928,0.876,3.979,1.32,6.096,1.32
			c5.786,0,11.066-3.405,13.451-8.673L63.956,189.821z"/>
		<path style="fill:#A8A8A8;" d="M63.514,189.432l14.461,6.557c3.428,1.766,6.842,2.775,10.162,3.005
			c1.576,0.521,3.323,0.784,5.206,0.784c1.294,0,3.426,0,5.284-0.601c15.011-2.35,20.367-6.917,25.527-14.911
			c0.244-0.379,0.45-0.783,0.603-1.185l0.17-0.453c7.654-20.199,46.005-121.468,49.302-131.583
			c1.758-5.388-0.931-11.757-7.014-16.626c-15.388-12.32-56.739-28.694-66.299-28.694c-0.336,0-0.646,0.015-0.995,0.043
			c-0.208,0.017-0.514,0.02-0.887,0.019c-0.466-0.003-1.025-0.006-1.629-0.012l-0.78-0.008c-0.853-0.011-1.775-0.021-2.727-0.021
			c-6.718,0-11.085,0.421-13.862,2.508c-2.433,1.135-4.363,2.882-5.744,5.203C68.316,23.512,8.158,136.579,7.55,137.714
			c-0.025,0.046-0.05,0.093-0.072,0.141c-0.486,1-4.696,10.029-1.161,19.149c2.181,5.633,6.841,9.988,13.481,12.602l16.821,7.63
			l-21.422,47.236c-3.358,7.413-0.061,16.181,7.35,19.544c1.929,0.875,3.98,1.318,6.097,1.318c5.785,0,11.066-3.404,13.451-8.671
			L63.514,189.432z"/>
		<path style="fill:#9A9A9A;" d="M63.07,189.04l14.461,6.557c3.43,1.767,6.843,2.775,10.162,3.005
			c1.577,0.522,3.324,0.785,5.207,0.785c1.294,0,3.427,0,5.285-0.602c15.01-2.348,20.364-6.918,25.525-14.91
			c0.245-0.38,0.451-0.783,0.603-1.185l0.172-0.454c7.653-20.198,46.003-121.467,49.301-131.582
			c1.758-5.388-0.931-11.758-7.015-16.626c-15.388-12.321-56.738-28.695-66.299-28.695c-0.336,0-0.645,0.015-0.994,0.045
			c-0.209,0.017-0.513,0.019-0.887,0.018c-0.467-0.002-1.025-0.006-1.628-0.011l-0.782-0.007c-0.853-0.012-1.775-0.022-2.727-0.022
			c-6.718,0-11.083,0.422-13.862,2.509C77.16,9,75.23,10.745,73.85,13.067C67.873,23.121,7.715,136.189,7.106,137.324
			c-0.025,0.045-0.049,0.092-0.072,0.14c-0.491,0.999-4.694,10.03-1.161,19.149c2.182,5.633,6.841,9.989,13.481,12.604l16.821,7.629
			l-21.422,47.236c-3.358,7.413-0.061,16.182,7.351,19.544c1.93,0.875,3.979,1.318,6.096,1.318c5.787,0,11.067-3.404,13.452-8.671
			L63.07,189.04z"/>
		<path style="fill:#8B8B8B;" d="M62.628,188.649l14.461,6.559c3.429,1.766,6.843,2.774,10.163,3.003
			c1.576,0.522,3.323,0.786,5.206,0.786c1.295,0,3.426,0,5.284-0.601c15.011-2.35,20.364-6.919,25.526-14.911
			c0.245-0.38,0.451-0.783,0.604-1.187l0.17-0.451c7.654-20.2,46.004-121.468,49.302-131.583c1.758-5.388-0.931-11.759-7.015-16.627
			c-15.387-12.319-56.738-28.695-66.298-28.695c-0.336,0-0.646,0.016-0.995,0.044c-0.209,0.017-0.514,0.021-0.887,0.019
			C97.683,5.003,97.124,5,96.521,4.994l-0.781-0.008c-0.852-0.011-1.774-0.021-2.727-0.021c-6.717,0-11.084,0.422-13.862,2.508
			c-2.433,1.136-4.362,2.883-5.743,5.203C67.432,22.73,7.282,135.804,6.665,136.934c-0.025,0.046-0.05,0.092-0.073,0.14
			c-0.493,0.997-4.695,10.03-1.161,19.149c2.182,5.633,6.842,9.988,13.481,12.604l16.822,7.629l-21.422,47.236
			c-3.359,7.414-0.061,16.181,7.35,19.544c1.929,0.875,3.979,1.319,6.097,1.319c5.785,0,11.066-3.404,13.451-8.673L62.628,188.649z"
			/>
		<path style="fill:#7D7D7D;" d="M62.186,188.26l14.461,6.558c3.429,1.767,6.843,2.774,10.162,3.004
			c1.577,0.521,3.324,0.785,5.207,0.785c1.294,0,3.426,0,5.284-0.601c15.011-2.35,20.364-6.919,25.526-14.911
			c0.245-0.38,0.451-0.783,0.603-1.186l0.171-0.453c7.654-20.198,46.004-121.467,49.302-131.583
			c1.758-5.387-0.931-11.757-7.015-16.625C150.499,20.927,109.148,4.553,99.588,4.553c-0.336,0-0.646,0.015-0.994,0.044
			c-0.209,0.017-0.514,0.02-0.887,0.018c-0.467-0.002-1.025-0.006-1.629-0.012l-0.781-0.007c-0.853-0.01-1.775-0.021-2.727-0.021
			c-6.718,0-11.084,0.422-13.862,2.507c-2.433,1.136-4.362,2.882-5.743,5.204C66.988,22.34,6.835,135.411,6.222,136.544
			c-0.025,0.045-0.049,0.092-0.072,0.139c-0.494,0.997-4.695,10.031-1.161,19.15c2.182,5.632,6.841,9.987,13.481,12.602
			l16.821,7.631l-21.422,47.236c-3.358,7.413-0.061,16.181,7.351,19.543c1.929,0.875,3.979,1.319,6.096,1.319
			c5.786,0,11.067-3.404,13.452-8.672L62.186,188.26z"/>
		<path style="fill:#6E6E6E;" d="M61.743,187.869l14.461,6.557c3.429,1.767,6.843,2.775,10.162,3.005
			c1.577,0.523,3.324,0.785,5.208,0.785c1.293,0,3.425,0,5.283-0.602c15.011-2.348,20.364-6.917,25.526-14.909
			c0.245-0.38,0.451-0.784,0.603-1.187l0.171-0.453c7.654-20.198,46.004-121.467,49.302-131.582
			c1.758-5.388-0.931-11.757-7.015-16.626C150.057,20.536,108.706,4.162,99.146,4.162c-0.336,0-0.646,0.015-0.994,0.044
			c-0.209,0.018-0.514,0.021-0.887,0.019c-0.467-0.002-1.025-0.006-1.629-0.012l-0.781-0.007c-0.853-0.011-1.775-0.021-2.727-0.021
			c-6.718,0-11.084,0.423-13.862,2.509c-2.433,1.135-4.362,2.882-5.743,5.203C66.546,21.951,6.379,135.013,5.779,136.153
			c-0.025,0.045-0.049,0.092-0.072,0.139c-0.494,0.998-4.695,10.031-1.16,19.15c2.181,5.633,6.84,9.988,13.48,12.603l16.821,7.631
			l-21.422,47.235c-3.357,7.413-0.06,16.181,7.351,19.543c1.929,0.876,3.979,1.319,6.096,1.319c5.786,0,11.067-3.404,13.452-8.672
			L61.743,187.869z"/>
		<path style="fill:#606060;" d="M61.301,187.479l14.461,6.558c3.429,1.767,6.843,2.775,10.162,3.005
			c1.577,0.521,3.324,0.785,5.207,0.785c1.294,0,3.426,0,5.284-0.602c15.011-2.349,20.402-6.894,25.526-14.91
			c0.247-0.379,0.451-0.783,0.603-1.187l0.171-0.452c7.654-20.199,46.004-121.467,49.302-131.583
			c1.758-5.387-0.931-11.758-7.015-16.625C149.614,20.146,108.264,3.772,98.703,3.772c-0.336,0-0.646,0.016-0.994,0.044
			c-0.209,0.018-0.514,0.019-0.887,0.019c-0.467-0.004-1.025-0.005-1.629-0.011l-0.781-0.008c-0.853-0.011-1.775-0.02-2.727-0.02
			c-6.718,0-11.084,0.422-13.862,2.508c-2.433,1.135-4.362,2.882-5.743,5.203C66.104,21.56,5.941,134.625,5.337,135.763
			c-0.025,0.046-0.049,0.092-0.072,0.14c-0.491,0.999-4.695,10.03-1.161,19.149c2.182,5.633,6.841,9.988,13.481,12.603l16.821,7.631
			l-21.422,47.236c-3.358,7.413-0.06,16.18,7.351,19.543c1.929,0.875,3.979,1.319,6.096,1.319c5.786,0,11.067-3.404,13.452-8.673
			L61.301,187.479z"/>
	</g>
	<path style="fill:#FFFFFF;" d="M61.301,187.479l14.461,6.558c3.429,1.767,6.843,2.775,10.162,3.005
		c1.577,0.521,3.324,0.785,5.207,0.785c1.294,0,3.426,0,5.284-0.602c15.011-2.349,20.402-6.894,25.526-14.91
		c0.247-0.379,0.451-0.783,0.603-1.187l0.171-0.452c7.654-20.199,46.004-121.467,49.302-131.583
		c1.758-5.387-0.931-11.758-7.015-16.625C149.614,20.146,108.264,3.772,98.703,3.772c-0.336,0-0.646,0.016-0.994,0.044
		c-0.209,0.018-0.514,0.019-0.887,0.019c-0.467-0.004-1.025-0.005-1.629-0.011l-0.781-0.008c-0.853-0.011-1.775-0.02-2.727-0.02
		c-6.718,0-11.084,0.422-13.862,2.508c-2.433,1.135-4.362,2.882-5.743,5.203C66.104,21.56,5.941,134.625,5.337,135.763
		c-0.025,0.046-0.049,0.092-0.072,0.14c-0.491,0.999-4.695,10.03-1.161,19.149c2.182,5.633,6.841,9.988,13.481,12.603l16.821,7.631
		l-21.422,47.236c-3.358,7.413-0.06,16.18,7.351,19.543c1.929,0.875,3.979,1.319,6.096,1.319c5.786,0,11.067-3.404,13.452-8.673
		L61.301,187.479z"/>
	<g>
		<g>
			<path style="fill:#FBC47F;" d="M34.175,232.123c-1.938,4.28-6.974,6.172-11.249,4.234l0,0c-4.274-1.938-6.167-6.976-4.23-11.25
				l50.309-110.942c1.938-4.275,6.972-6.167,11.248-4.229l0,0c4.276,1.938,6.171,6.976,4.23,11.246L34.175,232.123z"/>
			<path style="fill:#5C2F10;" d="M26.431,238.533c-1.416,0-2.793-0.296-4.091-0.886c-4.977-2.258-7.193-8.145-4.937-13.125
				L67.714,113.58c1.603-3.536,5.149-5.826,9.033-5.826c1.415,0,2.791,0.302,4.091,0.892c2.411,1.09,4.253,3.062,5.185,5.539
				c0.933,2.476,0.846,5.175-0.25,7.581L35.465,232.709C33.862,236.249,30.316,238.533,26.431,238.533z M76.747,110.59
				c-2.775,0-5.309,1.633-6.456,4.16L19.983,225.691c-1.61,3.557-0.028,7.763,3.527,9.373c0.927,0.424,1.91,0.636,2.92,0.636
				c2.775,0,5.308-1.632,6.456-4.156l50.308-110.947c0.782-1.722,0.845-3.645,0.178-5.416c-0.667-1.771-1.983-3.175-3.705-3.958
				C78.738,110.805,77.757,110.59,76.747,110.59z"/>
		</g>
		<path style="fill:#FBC47F;" d="M80.252,109.936c-4.276-1.938-9.31-0.046-11.248,4.229L40.777,176.41
			c4.778,2.234,8.398,4.547,6.847,10.969c-2.629,10.909-8.078,21.563-12.746,31.734C32.907,223.41,30,235.188,22.763,233.91
			c-1.681-0.3-3.035-1.023-4.146-2.02c0.8,1.91,2.274,3.546,4.309,4.467c4.275,1.938,9.312,0.046,11.249-4.234l50.308-110.941
			C86.423,116.911,84.528,111.873,80.252,109.936z"/>
		<g>
			<path style="fill:#EA4C84;" d="M98.288,10.057c-2.604,0.235-15.67-0.689-17.03,1.598C75.435,21.457,25.524,137.57,25.524,137.57
				s-8.159,16.469,9.168,23.226l20.349,9.229c1.739,0.787,22.085,16.245,32.156,20.812c3.217,1.456,7.812,0.268,7.812,0.268
				c13.351-2.024,17.285-5.335,21.675-12.199c0,0,45.844-120.917,49.377-131.754c0.775-2.384-0.631-6.314-4.975-9.793
				C145.655,25.003,104.966,9.452,98.288,10.057z"/>
			<path style="fill:#5C2F10;" d="M91.131,192.976L91.131,192.976c-1.751,0-3.272-0.284-4.519-0.85
				c-7.233-3.281-19.461-11.93-26.767-17.1c-2.538-1.795-4.935-3.493-5.394-3.714l-20.346-9.226
				c-5.46-2.129-9.131-5.463-10.846-9.884c-2.848-7.358,0.836-14.942,0.996-15.261c2.005-4.677,49.979-116.244,55.787-126.014
				c0.986-1.664,4.142-2.284,11.642-2.284c1.05,0,2.065,0.014,2.985,0.024c1.565,0.016,2.861,0.036,3.492-0.024
				c0.165-0.014,0.345-0.022,0.54-0.022c7.909,0,47.935,15.353,63.268,27.632c4.399,3.519,6.534,7.967,5.436,11.334
				c-3.503,10.746-47.526,126.882-49.398,131.822c-0.034,0.091-0.077,0.175-0.131,0.257c-4.602,7.2-8.967,10.762-22.658,12.834
				h0.004C95.249,192.501,93.375,192.976,91.131,192.976z M91.686,11.477c-7.626,0-9.015,0.743-9.261,0.969
				c-5.659,9.542-55.101,124.522-55.599,125.683c-0.064,0.135-3.321,6.889-0.915,13.07c1.417,3.642,4.545,6.425,9.297,8.275
				l20.419,9.26c0.61,0.276,2.141,1.352,5.854,3.981c7.224,5.107,19.313,13.659,26.302,16.827c0.877,0.399,2.004,0.602,3.348,0.602
				l0,0c1.889,0,3.506-0.412,3.523-0.415c13.332-2.026,16.738-5.206,20.759-11.467c1.784-4.715,45.872-121.035,49.299-131.555
				c0.595-1.824-0.762-5.242-4.513-8.247c-14.987-11.998-53.861-27.007-61.496-27.007c-0.103,0-0.199,0.004-0.286,0.014
				c-0.689,0.063-2.056,0.049-3.778,0.032C93.729,11.491,92.726,11.477,91.686,11.477z"/>
		</g>
		<path style="fill:#EA4C84;" d="M132.325,44.727c-3.438,1.446-8.959,3.188-12.673,5.655c9.067,2.092,19.336-1.068,28.403-1.659
			c5.93-0.387,11.855-0.707,17.789-0.927c0.08-0.244,0.155-0.463,0.216-0.646c0.775-2.384-0.631-6.314-4.975-9.793
			c-0.526-0.422-1.091-0.85-1.677-1.277c-4.342,1.198-8.735,2.238-13.097,3.553C141.554,41.063,136.904,42.799,132.325,44.727z"/>
		<path style="fill:#EA4C84;" d="M95.062,175.27c-6.393,2.891-12.651,6.063-18.925,9.202c4.091,2.641,8.039,4.994,11.06,6.364
			c3.217,1.456,7.812,0.268,7.812,0.268c13.351-2.024,17.285-5.335,21.675-12.199c0,0,2.177-5.738,5.617-14.828
			C113.162,167.666,104.01,171.229,95.062,175.27z"/>
		<g>
			<path style="fill:#F08BA4;" d="M130.723,29.876l-25.798-11.697c0,0-21.634-13.266-27.46-3.469
				c-5.827,9.803-66.579,123.958-66.579,123.958s-8.16,16.472,9.17,23.229c0,0,35.831,16.247,38.127,17.287l-17.776-8.061
				c2.294,1.045,38.127,17.29,38.127,17.29c16.498,8.583,23.514-8.408,23.514-8.408s45.844-120.918,49.375-131.757
				C154.957,37.406,130.723,29.876,130.723,29.876z"/>
			<path style="fill:#5C2F10;" d="M87.379,192.251h-0.002c-3.008,0-6.204-0.866-9.497-2.58l-20.247-9.18
				c-0.013-0.008-0.024-0.011-0.035-0.018l-17.776-8.06c-0.014-0.006-0.029-0.014-0.044-0.019l-20.306-9.211
				c-5.462-2.124-9.134-5.462-10.847-9.884c-2.849-7.354,0.836-14.94,0.993-15.261c2.499-4.698,60.853-114.335,66.631-124.056
				c1.695-2.852,4.604-4.297,8.645-4.297c8.793,0,20.287,6.985,20.771,7.282l25.643,11.615c0.518,0.15,16.607,5.229,20.838,13.406
				c1.141,2.21,1.353,4.466,0.623,6.694c-3.501,10.75-47.525,126.883-49.395,131.821C103.161,181.022,98.396,192.251,87.379,192.251
				z M58.795,177.907l20.324,9.215c2.953,1.535,5.708,2.294,8.258,2.294c9.109,0.005,13.321-9.855,13.362-9.951
				c0.441-1.17,45.855-120.975,49.336-131.655c0.492-1.507,0.345-2.984-0.449-4.517c-3.688-7.135-19.167-12.018-19.324-12.066
				l-25.963-11.76c-0.267-0.15-11.456-6.949-19.445-6.949c-3.014,0-5.043,0.954-6.212,2.915
				c-5.742,9.661-65.938,122.762-66.544,123.902c-0.013,0.028-3.267,6.785-0.863,12.962c1.417,3.642,4.545,6.427,9.294,8.28
				l20.404,9.247c0,0,0.014,0.008,0.018,0.01l17.771,8.057C58.771,177.895,58.783,177.903,58.795,177.907z"/>
		</g>
		<path style="fill:#EA4C84;" d="M48.585,150.964c-1.94,4.274-6.978,6.171-11.252,4.229l0,0c-4.275-1.938-6.17-6.973-4.23-11.251
			L83.408,33c1.938-4.274,6.975-6.171,11.25-4.229l0,0c4.277,1.938,6.167,6.976,4.232,11.249L48.585,150.964z"/>
		<path style="fill:#EA4C84;" d="M83.531,166.257c-1.939,4.275-6.976,6.167-11.251,4.229l0,0c-4.274-1.939-6.169-6.976-4.23-11.25
			l50.307-110.943c1.937-4.274,6.976-6.166,11.25-4.229l0,0c4.274,1.938,6.169,6.975,4.23,11.251L83.531,166.257z"/>
		<path style="fill:#F08BA4;" d="M29.982,107.909l43.836-79.769c0,0,6.928-15.741,16.37-11.648
			c9.442,4.091,45.325,18.57,45.325,18.57s4.092,4.093,0,4.409c-4.092,0.314-42.867-15.428-42.867-15.428s-9.841-1.966-15.128,6.381
			c-7.108,11.22-44.306,75.584-44.306,75.584S27.946,111.613,29.982,107.909z"/>
		<path style="fill:#F08BA4;" d="M58.868,175.457l21.503,10.702c0,0,11.862,3.689,16.901-6.338
			c5.034-10.028,9.757-26.321,9.757-26.321s-5-2.594-7.381,4.33c-2.376,6.926-8.056,23.95-16.225,24.868
			C75.252,183.612,50.993,167.852,58.868,175.457z"/>
		<path style="fill:#FBC47F;" d="M41.634,183.167l-20.538,44.381C21.096,227.548,38.802,199.691,41.634,183.167z"/>
	</g>
</g>
</svg>
